<svg xmlns="http://www.w3.org/2000/svg" width="5600.156" height="1130" viewBox="0 0 5600.156 1130">
  <defs>
    <style>
      .cls-1 {
        fill: #fff;
        fill-rule: evenodd;
      }
    </style>
  </defs>
  <path id="Blanco.svg" class="cls-1" d="M351,848c1.808,9.111,14.4,17.016,21,22l13,14c14.277,10.415,28.588,18.313,44,28,21.065,13.24,43.328,21.243,69,31,23.728,9.019,50.918,16.421,77,24l13,1c19.245,4.611,41.369,5.559,61,10l22,1c12.409,2.688,28.691-1.049,43,2,8.177,1.742,23.826,1.809,32,0h36c17.482-3.908,38.89-3.231,55-7,13.644-3.192,25.634-.751,39-4,39.958-9.711,78.476-16.186,114-30,6.765-2.63,34.17-17.3,38-16h1c-0.63,1.754-.19.971-1,2-4.98,17.645-20.97,31.691-31,45-28.489,37.81-73.23,49.75-128,62H859c-9.2,2.08-23,1.85-33,4H802c-10.96,1.65-30.088,2.34-41,0H734c-10.227-2.2-23.7-1.94-33-4H686c-6.955-1.54-14.092-3.64-22-4v1h-1c0.631,1.75.193,0.97,1,2,8.023,7.35,20.687,8.87,32,13,15.072,5.5,32.576,10.32,49,15,12.128,3.45,25.18,2.39,37,5,14.872,3.29,51.7-1.9,57,9,0.961,1.42.976,3.27,1,6-21.388,15.34-63.311,20.31-92,29-11.1,3.36-25.262,6.7-37,10-13.857,3.9-28.728,2.84-42,6-12.88,3.06-28.894.31-39,5H604a112.717,112.717,0,0,1-27-3H563c-8.282-1.88-19.267-2.17-27-4q-8-.495-16-1c-20.188-5.23-41.246-6.85-61-13-62.209-19.37-116.512-44.55-165-77-77.964-52.176-134.913-118.88-183-201-13.715-23.422-24.418-55.141-35-81-3.043-7.437-2.223-14.388-5-22-4.379-12-8.335-26.947-12-40l-1-12c-9.026-34.969-17.428-111.916-8-153,3.634-15.838.215-31.044,4-46,9.7-38.317,14.728-76.222,29-110,45.551-107.806,107.05-195.05,196-259,20.638-14.837,43.115-27.655,65-41,12.835-7.827,26.683-11.727,41-18a814.184,814.184,0,0,1,96-35c15.694-4.616,30.091-3.094,47-7,7.8-1.8,19.486-2.064,28-4h17c20.5-4.425,49.08-4.5,69,0l24,1c24.1,5.679,51.4,7.62,73,14,30.574,9.03,57.795,14.121,85,26,147.417,64.369,251.45,174.332,309,329,11.52,30.96,19.43,66.488,28,102,3.97,16.427,2.46,34.462,6,50v14c1.69,7.743,1,19.609,1,29,0,25.339-.24,49.323-5,70q-0.495,8.5-1,17c-4.21,17.761-5.61,37.471-12,54-10.09,26.106-34.24,32.1-60,43-37.15,15.716-75.46,28.7-113,45-72.659,31.545-147.549,62.677-226,87-22.687,7.034-44.006,8.582-68,15-28.1,7.516-60.828,8.991-97,9-17.335,0-34.989.262-49-3l-19-1c-39.457-10.145-78.077-16.591-113-31-12.208-5.037-24.635-11.3-37-17C362.336,853.39,358.374,849.131,351,848Zm414-22a186.255,186.255,0,0,0-33,4c-7.756,1.764-18.466-.487-25,1-9.506,2.164-34.934.822-43-1l-25-1c-14.5-3.288-30.945-3.323-44-7-27.068-7.625-52.1-10.392-75-22-72.37-36.686-119.738-93.021-153-169-5.749-13.132-12.149-28.231-17-43q-5.5-25-11-50-0.5-21.5-1-43c-0.01-38.175,7.28-76.1,19-104,20.283-48.287,42.907-82.477,72-121,6.842-9.059,17.865-18.117,27-25,11.068-8.339,21.458-18.942,33-27,22.8-15.917,51.51-28.537,80-38,13.453-4.469,28.419-6.69,42-10h10c6.26-1.484,16-2.413,23-4h17c7.259-1.584,23.188-2.974,32-1,10.278,2.3,22.87.378,34,3,11.826,2.787,24.382,6.6,37,7v-2c-30.122-18.137-64.586-31.707-103-42-56.579-15.161-140.93-7.083-188,10-18.189,6.6-33.4,10.706-50,18-18.016,7.915-35.571,20.161-51,31-69.276,48.669-109.962,104.941-144,189-9.384,23.174-10.815,50.008-17,76-2.154,9.053-1.13,17.909-3,26-2.679,11.593-.18,37.551,2,47q1.5,17.5,3,35c4.443,18.555,8.523,37.656,14,54,44.226,131.971,135.835,209.956,273,249,67.509,19.216,158.78,9.529,213-13,13.485-5.6,43.432-14.459,51-24C764.752,827.927,764.6,828.054,765,826ZM2301,184c102.84-2.087,183.98,23.948,242,67,21.5,15.953,41.24,37.651,49,67,9.69,36.654-12.94,64.71-35,74-7.25,3.055-38.78,10.125-43,0-4.94-6.767-2.02-20.217-3-31-1.15-12.579-1.69-27.535-5-39-13.94-48.348-43.82-82.081-87-101-18.15-7.955-39.02-12.032-60-17-37.97-8.993-95.92-2.329-126,7-90.32,28.01-139.48,80.689-178,160-8.73,17.973-11.84,36.522-18,57-3.79,12.575-6.68,28.452-10,42-2.98,12.169-.28,22.445-3,35-2.53,11.676-3.44,34.168-1,45v31c2.58,11.364.88,23.879,4,36,5.93,23.052,8.92,47.339,17,69,36.68,98.342,93.94,165.586,193,202,28.26,10.386,82.44,21.957,122,13,11.74-2.657,21.72-.2,33-3,29.85-7.4,60.01-14.972,85-28,20.64-10.761,40.72-24.426,59-38,6.25-4.644,10.84-12.34,17-17,4.45-3.367,9.69-6.615,13-11,10.46-13.847,21.31-28.223,33-41h1v1c4.68,1.27,9.46,4.3,10,10-4.58,4.469-7.16,10.768-11,16-5.06,6.9-12.93,12.293-18,19-5.14,6.8-11.27,14.907-18,20-20.97,15.881-41,32.932-64,47-33.15,20.275-73.77,31.052-116,42-9.57,2.48-18.46,2.035-27,4h-14c-14.76,3.192-42.99,4.632-59,1l-34-2c-23.29-5.777-47.31-9.955-68-17q-154.68-52.667-216-198c-8.63-20.365-11.77-39.734-18-63-6.83-25.527-9.99-54.25-10-87,0-9.064-.68-20.581,1-28q1.005-15.5,2-31c6.23-26.2,9.43-52.081,18-76,38.88-108.5,112.74-173.393,218-216,24.04-9.733,52.72-11.763,80-18C2265.43,184.843,2295.18,187.633,2301,184Zm651,0c104.41-2.053,186,22.583,245,66,22.13,16.281,42.1,37.773,50,68,9.04,34.609-10.96,64.68-34,74-8.82,3.569-39.56,10.673-44,0-5.15-7.682-1.32-21.806-3-33-1.74-11.619-1.87-25.01-5-36-14.99-52.667-46.67-84.894-94-105-19.24-8.174-40.61-9.674-63-15l-17-1c-33.51-7.277-86.11,3.621-109,12-90,32.944-139.04,88.476-175,175-5.49,13.211-6.64,25.655-11,40-9.94,32.684-13.99,70.021-14,113q0.495,24,1,48c7.94,34.215,8.99,68.3,21,98,39.45,97.582,91.58,163.089,192,200,34.38,12.637,95.12,22.257,140,11l15-1c30.12-7.857,59.7-14.936,85-28,20.85-10.763,40.63-24.392,59-38,6.69-4.951,11.45-13.04,18-18,4.45-3.365,9.69-6.615,13-11,10.18-13.5,20.8-27.327,32-40,1.75,0.631.97,0.193,2,1,5,1.452,8.81,4.367,9,11-5.69,4.388-8.69,12.177-13,18-3.22,4.349-8.76,7.713-12,12-6.9,9.142-15.94,20.137-25,27-21.73,16.449-43.13,34.871-68,48-32.82,17.329-68.93,27.219-109,38-13.18,3.547-25.78.923-40,4-17,3.68-42.42,4.979-60,1l-33-2c-26.27-6.506-52.58-9.789-75-19-19.48-8-38.02-12.687-55-23-65-39.488-112.88-87.657-148-157-10.47-20.675-14.39-42.175-22-66-10.56-33.043-19.73-105.057-10-147q0.495-9,1-18c8.87-33.676,14.28-65.964,27-95,39.99-91.314,113.06-158.681,211-192,23.84-8.11,50.66-10.9,77-17C2919.93,184.932,2946.32,187.55,2952,184ZM1627,201c16.33-.111,36.43-1.84,51,1,25.96,64.1,55.46,128.167,85,190,13.73,28.742,23.9,58.463,38,86,2.33,4.549,1.7,8.434,4,13,21.61,42.9,39.14,88.205,59,133,16.61,37.468,35.37,76.539,52,114,19.21,43.275,35.93,87.259,57,129,4.97,9.848,8.43,20.276,13,30,1.27,2.713,4.13,8.531,3,10-4.56,2.847-17.42,1-24,1h-62c-12.94-22.2-21.14-47.7-32-72-13.39-29.987-28.74-60.856-42-91-5.78-13.15-11.31-25.986-17-38-3.23-6.813-2.77-15.334-10-18-1.07-.752-0.95-0.6-3-1-17.68,17.466-29.93,34.311-58,42-18.37,5.032-67.53-1.284-84-5l-31-2c-39.43-8.863-105.31-3.85-136,8-54.91,21.2-61.2,75.454-83,129-5,12.276-8.88,38.008-16,47-4.38,2.738-16.63,1-23,1h-57a14.159,14.159,0,0,1-1-4c3.81-4.37,4.22-10.41,7-16,6.05-12.162,11.01-24.9,17-38,17.42-38.088,34.24-77.052,52-116,17.81-39.053,35.34-80.894,55-119,4.78-9.271,6.67-18.494,11-28,10.73-23.55,22.37-48.968,34-72,7.39-14.642,10.51-29.484,18-44,18.25-35.389,33.49-74.238,51-110,8.68-17.734,13.11-35.284,22-53,10.45-20.837,21.37-43.805,31-65C1614.47,228.773,1618.19,212.906,1627,201ZM3892,908h-89c-20.91-48.207-45.28-95.512-67-143-26.88-58.772-51.66-114.972-104-148-18.8-11.864-41.47-17.669-66-24l-20-1c-10.42-2.318-25.85-1-38-1h-78c-15.7,0-35.17-2.039-44,5-12.44,9.915-8,57.85-8,81V908h-81c-4.28-13.049-1-49.41-1-66V202c8.36-2.745,22.81-1,33-1h295c5.31,3.124,15.4.49,22,2,17.96,4.111,35.51,4.265,53,9,48.03,13,99.84,36.3,127,70a215.566,215.566,0,0,1,33,57c14.42,36.643,8.27,91.667-5,123-27.42,64.735-79.69,91.98-148,116-17.31,6.088-37.53,6.156-56,10v3l3,1c7.84,5.169,24.53,8.01,34,12,17.22,7.261,34.46,18.346,49,29,46.74,34.259,75.39,92.9,100,149,4.12,9.4,6.31,17.861,11,27,10.19,19.84,18.5,41.548,29,62C3881.43,881.568,3891.05,894.358,3892,908Zm28-707h79c4.6,9.032,2,29.4,2,42V702c2.64,4.427-.31,13.022,1,19,2.45,11.13,1.64,23.611,5,35,13.68,46.361,29.78,86.621,64,112,19.83,14.712,43.86,25.795,71,33,10.24,2.718,17.89,1.487,29,4,22.55,5.1,62.48,5.18,85,0,10.96-2.522,19.03-1.041,29-4,25.13-7.458,48-16.382,67-30,38.73-27.755,57.07-72.008,70-126,5.2-21.711,4-51.219,4-77V202c6.23-2.065,17.08-1,25-1h56v1h1c2.65,39.252,1,83.061,1,124V545c0.01,86.409,3.9,166.822-21,228-22.62,55.577-69.09,94.358-121,121-22.73,11.665-50.42,16.885-77,24-13.15,3.519-24.69.939-39,4-28.23,6.038-73.82,3.395-100-3l-15-1c-16.88-4.43-35.12-7.578-51-14-79.4-32.1-135.14-82.395-159-170-8.4-30.839-7-69.961-7-109V225C3919,217.352,3918.03,206.978,3920,201Zm878,0c16.65-.111,37.13-1.9,52,1,3.45,15.668,16.48,36.367,23,51,19.87,44.593,39.52,89.169,59,133,36.76,82.719,69.4,168.3,110,248,3.85,7.562,4.24,14.543,8,22,12.92,25.624,24.25,54.294,37,80,7.27,14.654,11.27,29.066,18,44,12.56,27.872,25.85,57.3,39,85,5.06,10.657,9.13,21.629,14,32,1.27,2.713,4.13,8.531,3,10-4.35,2.747-16.65,1-23,1-20.72,0-46.16,2.74-65-1-3.32-14.4-12.7-29.541-19-42-6.43-12.72-8.55-25.278-15-38-12.93-25.49-25.43-53.643-37-80-6.14-13.971-12.1-27.731-18-41-2.71-6.084-3.64-14.639-10-17-1.18-.8-1.68-0.773-4-1-14.16,15.18-26.98,32.77-49,40-20.93,6.87-63.05,2.707-84-2-10.49-2.356-19.89.417-31-2-38.26-8.323-103.8-7.623-137,4-56.35,19.73-66.45,67.336-87,122-5.27,14.006-9.12,28.05-14,41-2.15,5.7-1.64,11.687-5,16-4.38,2.738-16.63,1-23,1h-58a14.159,14.159,0,0,1-1-4c7.47-5.928,16.11-35.294,21-46,14.39-31.541,30.88-64.347,45-96,6.71-15.045,10.59-29.37,18-44,14.25-28.154,28.27-59.055,41-88,4.2-9.555,6.22-18.74,11-28,16.59-32.172,29.6-66.25,45-100,25.87-56.691,51.13-116.427,79-172,3.78-7.528,4.2-14.618,8-22C4766.65,273.669,4781,236.109,4798,201Zm381,0h81c4.11,12.526,1,47.063,1,63V874c2,2.548,2.09,6.192,4,9,2.28,3.357,7.16,5.114,10,8,91.97,5.024,187.1-.576,258-21,25.09-7.228,51.55-12.69,77-21,10.55-3.445,25.39-10.627,36-10v68c-11.55,3.794-31.42,1-45,1H5179c-4.14-12.62-1-34.285-1-49V261C5178,244.551,5174.52,214.615,5179,201ZM428,610q-4.083-222.286,150-287c51.868-21.832,131.592-17.66,180,3,74.731,31.894,121.451,80.71,146,163,6.122,20.522,9,42.59,9,70v20c-2.278,9.937-3.855,22.613-6,32a6.1,6.1,0,0,1,2,2l3-1c9.355-20.25,20.388-40.031,27-64,14.706-53.307-.73-121.609-17-160-32.744-77.263-77.287-129.041-155-161-7.833-3.221-14.616-3.278-23-6-25.115-8.153-66.533-17.412-99-10l-18,1c-21.662,5.358-42.856,8.837-62,17-69.767,29.748-120.767,86.63-151,156-8.99,20.629-13.043,43.956-19,67-11.126,43.044-.446,94.259,13,125C411.821,585.736,418.031,608.89,428,610ZM3397,217c-1.01.693-4,1.287-5,2-20.3,6.952-14,48.305-14,75V537c0,7.322-1.01,17.287,2,22,5.2,16.635,23.04,16,45,16h94c35.31,0,87.4,4.51,117-3,70.74-17.949,116.05-50.789,138-117,5.32-16.054,11.42-49.54,7-70V368c-1.45-6.375-1.99-13.757-4-21a204.578,204.578,0,0,0-34-69l-12-11c-25.86-25.848-56.66-37.721-99-48-21.8-5.292-54.88-2-80-2H3397ZM1615,276c-1.18.8-1.68,0.773-4,1-11.28,24.654-17.74,52.319-28,79-24.46,63.636-44.67,131.385-69,195-6.25,16.331-8.48,31.93-15,48-11.62,28.637-19.95,59.128-31,89-4.32,11.689-12.79,24.8-10,40h2c1.18,0.8,1.68.773,4,1,16.56-14.355,26.71-34.443,40-52,10.92-14.424,30.26-21.183,51-26,15.64-3.632,40.88,2.01,52,5,10.36,2.786,18.93,2.877,29,6,19.4,6.019,40.51,13.943,59,21,6.15,2.348,10.69,1.663,17,4,15.17,5.621,43.81,16.682,61,5,4.11-2.8,6.34-7.536,9-12,13.29-22.339-.02-40.95-8-59-4.25-9.615-6.24-18.61-11-28-38.61-76.089-68.4-158.408-106-235-9.6-19.551-17.21-39.723-26-59C1626.45,289.029,1625.63,280.065,1615,276Zm3168,1c-17.81,32.639-25.05,74.671-39,111-19.22,50.061-35.81,103.821-55,154-5.89,15.392-8.09,29.524-14,45-9.96,26.061-17.68,53.865-28,81-6.8,17.872-17.8,35.916-18,59l3,1c1.18,0.8,1.68.773,4,1,14.12-12.356,17.4-21.808,28-37,14.75-21.14,32.51-34.148,62-41,15.26-3.547,36.09,1.137,47,4,8.89,2.334,15.53,1.4,24,4,29.31,9.015,57.7,17.737,87,28,16.32,5.716,44.45,16.7,62,4,24.95-18.046,9.15-49.143,0-70-5.34-12.163-8.87-22.636-14-35-4.49-10.833-11.6-23.567-17-34-10.15-19.61-15.02-40.275-25-60-13.23-26.14-26.2-55.188-38-82-11.43-25.983-21.71-51.545-34-76-9.65-19.211-14.97-39.807-26-57h-9Z" transform="translate(-45.844)"/>
</svg>
