<svg xmlns="http://www.w3.org/2000/svg" width="3171.028" height="3200" viewBox="0 0 3171.028 3200">
  <defs>
    <style>
      .cls-1 {
        fill: #fff;
        fill-rule: evenodd;
      }
    </style>
  </defs>
  <path id="Blanco.svg" class="cls-1" d="M1652,3200H1536c-1.56-4.1-1.48-5.54-7-6-2.19-1.31-5.64-.23-9-1-11.87-2.71-29.65-2.94-43-3h-20c-7.99-1.77-17.78.07-27-2-12.83-2.88-27.62-4.16-40-7-12.97-2.98-23.33.08-36-3-46.82-11.37-95.99-15.49-142-28-59.86-16.27-120.69-34.6-175-57-13.55-5.59-25.79-7.41-39-13-426.875-180.49-730.588-492.03-898-932-9.737-25.59-14.127-51.04-23-78-9.543-29-18.864-60.61-27-91-7.781-29.06-10.809-59.66-18-88q-0.5-7.995-1-16c-5.354-23.07-6.638-51.6-12-75q-0.5-14.505-1-29c-11.311-50.77-7.991-121.52-8-182-0.005-36.86-.952-79.64,6-111,1.84-8.3.541-17.42,2-24v-15c2.015-9.05,2.032-20.05,4-29v-13c6.176-25.79,8.768-57.01,15-81q2-16.5,4-33c5.962-23.07,11.752-49.74,18-72,7.257-25.85,11.2-48.95,19-74,13.682-43.94,30.717-90.29,48-131,6.022-14.184,7.979-26.859,14-41,46.373-108.907,107.117-208.218,172-299C470.208,444.641,685.066,259.29,949,144c78.24-34.177,161.16-66.715,248-93l17-2c19.69-5.924,45.41-12.6,66-18,39.03-10.24,82.55-9.045,123-18h18c7.73-1.68,18.95-2.549,27-3h20c12.54-2.708,26.94-.08,40-3,2.63-.589,7.89-0.845,11-2,2.14-.8,5.15-4.273,7-5h137c1.39,0.849,2,4.115,4,5l12,1c10.47,2.367,23.6,1.728,34,4h23c21.4,4.756,44.36,4.4,65,9,13.48,3,24.18-.036,37,3,18.7,4.426,39.87,4.6,59,10,21.39,6.035,48.11,11.167,69,17l17,2c38.61,10.9,79.84,22.721,116,36l19,4c49.09,18.782,98.14,37.542,145,59,27.58,12.632,56.49,28.556,82,44,2.38,1.44,4.24.763,7,2,4.02,1.8,7.45,5.8,11,8q5.505,2,11,4c32.78,19.535,66.12,39.079,98,60,12.1,7.939,23.16,19.026,35,27,136.96,92.255,254.54,209.138,352,341,4.57,6.178,11.48,11.79,16,18,12.61,17.327,25.22,35.3,37,53,25.39,38.144,47.02,78.82,71,118,9.32,15.23,13.55,32.675,23,48,14.66,23.781,25,49.655,37,77q4.005,6.5,8,13c26.47,62.12,46.34,126.68,68,193,8.83,27.04,13.9,55.59,21,83q0.495,6.495,1,13c26.42,98.34,38.98,209.23,39,334,0.01,71.08,4.1,147.58-9,207-3.21,14.54.34,28.6-3,43-4.36,18.8-4.07,39.32-9,59-5.7,22.75-12.03,48.71-18,71-6.98,26.06-10.69,47.21-23,67-20.63,33.15-56.27,59.03-94,75-5.91,2.5-11.27,2.51-17,5-10.55,4.58-23.28,11.02-34,15l-13,3c-53.83,22.88-111.07,44.75-165,67-19.47,8.03-37.95,12.88-57,21-57.99,24.73-119.31,48.84-177,74-15.53,6.77-31.23,9.12-47,16-162.43,70.89-329.99,132.91-505,191-7.01,2.33-13.62,1.6-21,4-30.03,9.78-64.32,18.05-95,27-7.93,2.31-13.75.84-22,3-88.7,23.25-182.02,35.73-292,38-23.65.49-48.39,0-74,0h-37c-28.58-6.33-62.64-3.95-90-10h-15c-30.03-6.99-62.12-10.29-91-18-10.27-2.74-18.56-1.22-29-4-29.73-7.91-62.43-16.61-91-26-15.33-5.04-28.63-6.16-43-12-28.74-11.69-61.84-19.6-91-32-17.71-7.53-35.417-18.54-53-26-3-.67-6-1.33-9-2-11.321-4.81-22.973-13.18-34-18-9.122-3.99-16.887-6.04-25-11-8.241-5.04-13.862-11.29-26-13-1.133,1.55-1.085.84-2,3-0.752,1.07-.6.95-1,3,15.6,18.91,32.314,37.21,52,52,12.517,9.4,21.513,24.55,34,34,30.1,22.77,59.66,47.94,92,68,119.32,74.03,264.22,129.11,418,168,11.08,2.8,19.74.88,30,4,58.4,17.77,129.25,20.08,191,34h18c15.58,3.55,37.32,2.54,53,6h15c23.98,5.61,53.7,6,82,6h42c15.3,3.27,36.86,1,54,1,13.72,0,31.05,1.6,43-1h20q36.99-.495,74-1c22.91-5.08,49.67-2.91,72-8q16.5-.495,33-1c31.8-7.36,68.62-7.54,101-15,12.73-2.93,22.61,0,35-3,17.55-4.25,38.58-5.87,56-10,8.69-2.06,15.55-.52,24-3,21.96-6.46,49.8-12.07,72-18,7.44-1.99,12.91-.82,20-3,43.84-13.49,91.96-25.2,134-41,9.2-3.46,18.54-3.4,28-7,30.24-11.52,61.91-25.82,92-39,10.58-4.63,25.68-18.04,38-16v2c2.28,4.48-3.01,9.52-5,13-6.14,10.74-14.11,20.44-20,31-14.59,26.15-32.63,50.12-50,74-3.42,4.7-9.49,8.34-13,13-11.68,15.51-24.53,30.31-40,42-6.15,4.65-10.78,12.37-17,17-32.78,24.39-73.38,52.47-113,69-41.37,17.26-87.3,26.84-134,39l-26,3c-12.45,3.09-27.7,5.94-41,9h-16c-20.5,4.57-45.71,4.19-67,9h-20a153.937,153.937,0,0,0-25,3h-44c-9.01,1.94-20.14-.13-30,2-16.21,3.5-45.78,4.78-63,1h-19l-29-3h-49c-24.04-5.29-55.62-.8-79-6h-13c-10.2-2.42-24.18-3.59-35-6h-25c-20.48-4.63-38.73-10.79-62-11-1.84,2.92-2.74,2.9-3,8,67.35,39.58,154.38,56.59,238,80q9.495,0.495,19,1c16.91,3.83,37.66,5.11,53,9q9.495,0.495,19,1c30.57,7.04,68.97,2.28,99,9h20c16.67,3.82,35.09,3.74,47,12,3.01,2.08,4.49,6.36,7,9,0.5,5.03,1.74,9.3-1,13-6.33,16.79-26.25,20.21-44,26-18.14,5.91-42.38,10.63-60,17-8.69,3.14-17.91,1.63-26,5-33.48,13.97-73.47,22.36-109,34-6.51,2.13-11.98.96-19,3-33.73,9.83-74.66,17.72-110,27q-7.5.495-15,1c-13.35,3.26-29.22,5.93-42,9q-9,.495-18,1c-16.98,3.91-36.9,4.28-53,8q-13.995.495-28,1c-10.86,2.39-26.49,2.61-38,3h-20l-18,3C1652.78,3196.28,1652.36,3196.25,1652,3200ZM1458,350c-2.87,1.67-7.85.065-12,1-15.05,3.395-33.43.861-48,5-6.38,1.813-16.08,4.33-23,6l-30,3c-41.21,11.164-84.98,15.749-124,29-94.33,32.037-179.42,68.587-257,117-38.2,23.837-74.166,52.364-110,79-11.149,8.287-19.978,20.668-31,29-21.526,16.274-48.818,41.584-65,63-6.064,8.025-15.931,13.978-22,22-10.545,13.938-21.388,26.7-32,41-4.158,5.6-10.889,10.328-15,16-10.471,14.446-20.963,28.673-31,43-4.775,6.815-7.329,13.986-12,21-25.476,38.255-49.823,77.116-69,122-4.035,9.445-11.681,19.617-16,29-5.645,12.265-7.481,24.02-13,37-9.375,22.05-20.991,46.32-29,70-16.532,48.87-24.594,102.4-38,155l-4,34c-2.978,12.7-4.022,29.75-7,43v13c-6.7,29.74-10.074,92.75-3,125v30c4.8,21.54.882,46.86,6,69,3.433,14.85,3.071,31.63,7,48,6.237,25.98,10.79,55.35,18,79q2,12.495,4,25c1.887,6,5.97,12.81,8,19,1.872,5.7,1.119,10.3,3,16,8.7,26.38,17.062,55.32,28,81s25.91,52.14,37,77c6.705,15.03,13.623,32.14,22,46,8.332,13.79,18.6,27.48,27,41,5.364,8.63,8.218,17.7,14,26,21.71,31.15,46.173,60.61,69,91q11.5,10.995,23,22c11.1,14.7,23.308,28.9,38,40q8,8.505,16,17a291.966,291.966,0,0,0,35,30c10.079,7.34,18.071,18.59,28,26,45.773,34.15,92.13,67.39,142,98,11.13,6.83,23.03,9.34,34,16,58.86,35.74,133.5,61.87,204,85,35.46,11.63,75.02,18.5,112,28,10.28,2.64,20.03.27,31,3,13.02,3.25,28.59,5.77,43,9h30c4.08,0.89,11.03,2.1,15,3h19c18.99,4.08,43.94,3,67,3,22.52,0,46.31,1.11,65-3h16c3.78-.87,10.13-2.42,14-3h18c10.53-2.39,25.17-.96,37-4,15.55-3.99,33.33-3.86,50-8,18.02-4.48,38.59-10.34,56-16,17.26-5.61,31.31-7.47,48-13,47.11-15.6,94.09-35.39,135-57,12.65-6.68,25.27-14.39,38-20,6.79-2.99,13.5-3.87,16-11,0.96-1.42.98-3.27,1-6-1.77-.96-1.68-1.26-4-2-5.53-3.24-18.43,3.5-24,5q-18.495,1.995-37,4h-17a117.673,117.673,0,0,1-24,3c-42.69.33-83.87,2.99-129,3-20.85,0-43.02.79-60-3h-21c-4.1-.92-11.2-2.13-15-3h-20c-16.72-3.73-34.91.03-52-4-14.15-3.34-30.92-4.52-45-8q-7.5-.495-15-1c-35.64-8.85-74.11-16.28-107-27-7.07-2.31-13.27-1.49-20-4-32.69-12.2-68.44-23.07-100-37-8.54-3.77-18.06-10.17-26-15-11.5-7-24.47-9.88-36-17-35.1-21.7-68.35-44.77-101-69-8.17-6.06-13.93-15.98-22-22-36.34-27.09-70.04-62.58-97-99-4.74-6.4-12.33-11.61-17-18-16.28-22.29-34.42-44.68-49-68-9.705-15.52-18.7-31.02-28-46-5.733-9.24-8.32-18.82-14-28-12.894-20.84-26.941-44.97-37-68-17.077-39.09-32.763-78.78-48-120-2.362-6.39-1.821-11.39-4-18-11.041-33.49-19.158-71.91-28-108q-0.5-7.005-1-14c-3.116-12.71-5.062-27.63-8-40v-19a181.011,181.011,0,0,0-3-20v-19c-2.544-11.99-1-29.26-1-43,0-12.78-1.428-28.96,1-40v-19c5.784-24.83,5.446-53.6,11-77q0.5-8.505,1-17c13.949-54.47,25.022-108.59,45-156q3.5-12,7-24c29.155-63.67,59.258-126.591,95-184,15.49-24.885,33.75-49.227,51-73,6.34-8.742,15.59-16.285,22-25,10.95-14.9,23.04-27.5,34-42,6.35-8.4,16.66-14.608,23-23,5.89-7.793,13.27-17.166,21-23,26.14-19.725,49.4-43.646,76-63,37.37-27.19,76.73-51.641,117-76,8.94-5.409,20.36-8.752,30-13,10.77-4.744,22.06-12.352,33-17,6.85-2.907,13.35-3.1,20-6,10.13-4.417,22.73-11.073,33-15,30.21-11.557,64.42-19.087,96-28l23-3,33-9,21-1c15.89-3.541,32.31-5.379,48-9,12.71-2.935,27.14-.368,39-3l72-1c10.69-2.28,31.32-2.354,42,0h20c8.41,1.863,21.21,1.261,29,3l29,1c16.83,3.895,36.46,5.156,53,9l23,2c18.46,4.933,37.64,13.659,59,14,1.22-2.281,1.64-2.251,2-6l-6-8c-11.77-8.742-33.67-15.589-48-22-11.05-4.942-22.73-14.129-34-19-19.05-8.233-36.37-13.7-56-22-46.3-19.574-97.68-34.454-151-48l-16-1c-30.46-8.158-68.67-10.658-100-18l-38-1c-13.73-3.043-32.43-2-49-2h-84Zm282,243c-6.75,3.944-18.44.074-27,2-20.1,4.521-42.55.767-62,6-13.37,3.6-29.15,3.962-44,8-45.75,12.444-90.88,23.43-132,41-192.52,82.262-341.28,242.864-424,435-17.08,39.67-28.01,82.87-41,126-9.17,30.43-12.632,62.65-20,95q-2.5,28.5-5,57c-3.821,17.74-2.994,38.91-3,60v21c4.918,21.78,3.147,44.25,9,66,9.86,36.66,16.32,74.47,30,108,1.97,4.83,6,9.43,8,14,11.03,25.16,20.79,48.54,33,72,5.04,9.67,7.88,23.42,22,24a24.963,24.963,0,0,1,4-5c-7.78-228.93,41.64-424.02,128-563,23.64-38.04,47.36-71.37,78-102q7.995-9,16-18c27.61-20.98,53.29-46.452,83-65,4.48-2.795,9.51-3.225,14-6,12.5-7.721,25.7-15.868,39-23,6.32-3.388,12.99-4.355,19-8,22.01-13.353,51.14-24.493,77-33,5.66-1.864,10.41-.948,16-3,96.91-35.586,268.89-40.765,374-9l21,3c11.11,3.436,24.36,9.529,35,14,16.47,6.922,31.86,8.959,48,16,37.95,16.558,75.59,36.071,109,58,135.04,88.65,231.88,210.16,287,379q1.5,9.495,3,19c7.05,25.9,12.26,55.36,19,83q0.495,11.505,1,23c2.01,9.07,2.95,21.21,5,30,3.87,16.59,1,38.7,1,57,0,29.92-.01,60.81-6,86q-0.495,9.495-1,19c-1.55,6.47-1.11,15.35-3,23-2.78,11.27-7.4,20.8-5,32h2c1.18,0.8,1.68.77,4,1,3.38-3.77,8.25-6.63,11-11,5.76-9.17,7.31-19.73,13-29a377.422,377.422,0,0,0,25-48c2.2-5.16,1.82-9.83,4-15,10.47-24.81,19.54-54.33,27-82,4.61-17.11,4.89-34.99,9-51,3.79-14.77.69-29.71,4-45,2.2-10.14,1.7-22.78,4-33v-24c0.59-2.8,1.98-9.64,1-14-1.04-4.63.32-13.14-1-19-3.66-16.25-3.34-36.69-7-52v-14c-3.93-16.16-4.45-34.85-9-52-7.01-26.39-13.8-55.12-22-80-10.03-30.44-16.63-58.69-29-87-68.02-155.641-164.09-280.17-302-366-24.53-15.266-49.68-33.787-77-46C1999.7,621.825,1890.13,593.389,1740,593Z" transform="translate(-9.563)"/>
</svg>
